<svg xmlns="http://www.w3.org/2000/svg" width="800" height="600" viewBox="0 0 800 600">
  <rect width="800" height="600" fill="#fffaf7"/>
  <rect x="160" y="120" width="480" height="360" rx="36" fill="#ffffff" stroke="#fed7aa" stroke-width="8"/>
  <rect x="285" y="150" width="230" height="70" rx="20" fill="#ea580c"/>
  <text x="400" y="195" text-anchor="middle" font-family="Arial, sans-serif" font-size="34" font-weight="700" fill="#ffffff">WELLNESS</text>
  <rect x="300" y="258" width="200" height="180" rx="34" fill="#ffedd5"/>
  <path d="M345 350c0-34 25-62 55-62s55 28 55 62-25 62-55 62-55-28-55-62z" fill="#fb923c"/>
  <path d="M420 282c6 22 27 35 52 37-7 26-28 42-55 48 8-29 8-57 3-85z" fill="#fdba74"/>
</svg>
